<svg width="64" height="64" viewBox="0 0 64 64" fill="none" xmlns="http://www.w3.org/2000/svg">
<rect width="64" height="64" rx="6" fill="#F55827"/>
<path d="M53.6012 41.022C52.7217 42.108 50.5678 42.882 50.5678 42.882L34.5478 48.516V44.36L46.3378 40.246C47.6755 39.778 47.8801 39.114 46.794 38.766C45.7078 38.416 43.7421 38.516 42.4023 38.988L34.5478 41.696V37.386L34.9998 37.234C34.9998 37.234 37.2703 36.448 40.4612 36.102C43.6542 35.758 47.563 36.15 50.6312 37.288C54.0881 38.358 54.4767 39.936 53.6012 41.022ZM36.0716 33.948V23.324C36.0716 22.076 35.8364 20.928 34.6398 20.604C33.7255 20.316 33.1569 21.148 33.1569 22.394V49L25.828 46.722V15C28.9432 15.566 33.4841 16.906 35.9244 17.71C42.1323 19.796 44.2371 22.394 44.2371 28.244C44.2371 33.946 40.6412 36.108 36.0716 33.948ZM12.3791 43.928C8.82813 42.948 8.23699 40.908 9.85495 39.734C11.3502 38.65 13.8947 37.834 13.8947 37.834L24.4043 34.174V38.346L16.8402 40.996C15.5045 41.464 15.3 42.128 16.3841 42.476C17.4723 42.826 19.4379 42.726 20.7757 42.256L24.4043 40.968V44.698L23.6802 44.818C20.0516 45.398 16.1877 45.156 12.3791 43.928Z" fill="white"/>
</svg>
