<svg width="22" height="19" viewBox="0 0 22 19" fill="none" xmlns="http://www.w3.org/2000/svg">
<path fill-rule="evenodd" clip-rule="evenodd" d="M8.64962 10.8931C9.88816 10.8931 10.4238 11.8921 10.578 12.2282C10.824 12.7652 11.3644 13.9314 11.6247 15.8819C11.717 16.5817 11.8356 18.2256 11.0799 18.7362C10.84 18.8977 9.66037 19.0471 9.5534 18.986C9.25719 18.8176 8.95622 17.4539 8.51667 16.7393V16.7341C8.4175 16.564 8.35427 16.4644 8.19014 16.3669C8.02125 16.2656 7.75622 16.2846 7.29632 16.2846H4.39614C3.9371 16.2846 3.67164 16.2656 3.50232 16.3669C3.33862 16.4644 3.27539 16.564 3.17579 16.7341V16.7393C2.73667 17.4539 2.43527 18.818 2.13949 18.986C2.03209 19.0471 0.852447 18.8977 0.612534 18.7362C-0.143149 18.2256 -0.0240585 16.5817 0.0677493 15.8823C0.328449 13.9314 0.868903 12.7652 1.11488 12.2282C1.26861 11.8921 1.8043 10.8931 3.04328 10.8931C3.53826 10.8931 3.97738 11.1689 4.4165 11.4548C4.4165 11.4548 5.04053 11.4115 5.67626 11.4045L5.84948 11.4032C6.5402 11.4032 7.27596 11.4552 7.27596 11.4552C7.71508 11.1694 8.1542 10.8931 8.64962 10.8931ZM8.47856 13.7469C7.85929 13.7469 7.55269 14.2064 7.36907 14.4814C7.31147 14.568 7.21447 14.7135 7.15254 14.7343C7.10751 14.7135 7.0105 14.5684 6.95334 14.4818C6.76972 14.2068 6.46312 13.7469 5.84471 13.7469C5.22544 13.7469 4.91927 14.2068 4.73609 14.4818C4.67849 14.5684 4.58192 14.7131 4.52 14.7343C4.47539 14.7135 4.37882 14.5684 4.32122 14.4818C4.13804 14.2068 3.83187 13.7469 3.2126 13.7469C2.59376 13.7469 2.28759 14.2068 2.10398 14.4818C2.04638 14.5684 1.94981 14.7131 1.90694 14.7334C1.90694 14.7334 1.90391 14.7343 1.89698 14.7343C1.75341 14.7343 1.61572 14.7913 1.51421 14.8928C1.41269 14.9944 1.35566 15.132 1.35566 15.2756C1.35566 15.4192 1.41269 15.5569 1.51421 15.6584C1.61572 15.7599 1.75341 15.8169 1.89698 15.8169C2.51538 15.8169 2.82198 15.357 3.0056 15.082C3.06276 14.9954 3.15933 14.8504 3.22126 14.8296C3.26587 14.8504 3.36287 14.9954 3.42047 15.082C3.60365 15.357 3.91025 15.8169 4.52909 15.8169C5.14749 15.8169 5.4541 15.357 5.63771 15.082C5.69488 14.9954 5.79145 14.8508 5.85338 14.8296C5.89755 14.8504 5.99455 14.9954 6.05258 15.082C6.23533 15.357 6.54193 15.8169 7.1612 15.8169C7.78047 15.8169 8.08664 15.357 8.27026 15.0825C8.32786 14.9959 8.42486 14.8504 8.48765 14.8296C8.53226 14.8504 8.62883 14.9959 8.68686 15.0825C8.87004 15.357 9.17665 15.8169 9.79592 15.8169C10.0947 15.8169 10.3329 15.5744 10.3329 15.2756C10.3329 14.9768 10.0861 14.7343 9.78725 14.7343C9.74222 14.7135 9.64521 14.568 9.58805 14.4814C9.404 14.2064 9.0974 13.7469 8.47856 13.7469ZM8.34778 11.9887C7.89523 11.9887 7.65922 12.2373 7.48643 12.4187C7.33573 12.5772 7.26211 12.647 7.09581 12.647C6.92909 12.647 6.85547 12.5777 6.7052 12.4187C6.53284 12.2373 6.29639 11.9887 5.84428 11.9887C5.3926 11.9887 5.15659 12.2373 4.9838 12.4187C4.83396 12.5772 4.76034 12.647 4.59405 12.647C4.42776 12.647 4.35457 12.5777 4.2043 12.4187C4.03194 12.2373 3.79549 11.9887 3.34338 11.9887C2.89127 11.9887 2.65526 12.2373 2.48247 12.4187C2.33263 12.5772 2.25901 12.647 2.09315 12.647H1.89698C1.81084 12.647 1.72823 12.6812 1.66731 12.7421C1.6064 12.803 1.57219 12.8856 1.57219 12.9718C1.57219 13.0579 1.6064 13.1405 1.66731 13.2014C1.72823 13.2623 1.81084 13.2965 1.89698 13.2965H2.09315C2.54483 13.2965 2.78171 13.0475 2.95363 12.8665C3.1039 12.708 3.17709 12.6383 3.34338 12.6383C3.50968 12.6383 3.5833 12.708 3.73357 12.8665C3.90592 13.0475 4.14194 13.2965 4.59405 13.2965C5.04616 13.2965 5.28261 13.0475 5.45496 12.8665C5.60523 12.708 5.67842 12.6383 5.84471 12.6383C6.01101 12.6383 6.08419 12.708 6.23446 12.8665C6.40769 13.0475 6.64327 13.2965 7.09625 13.2965C7.54792 13.2965 7.7848 13.0475 7.95673 12.8665C8.10743 12.708 8.18105 12.6383 8.34778 12.6383C8.5145 12.6383 8.58769 12.708 8.73839 12.8665C8.91162 13.0475 9.1472 13.2965 9.60017 13.2965H9.79592C9.88206 13.2965 9.96467 13.2623 10.0256 13.2014C10.0865 13.1405 10.1207 13.0579 10.1207 12.9718C10.1207 12.8856 10.0865 12.803 10.0256 12.7421C9.96467 12.6812 9.88206 12.647 9.79592 12.647H9.59974C9.43301 12.647 9.3594 12.5777 9.20912 12.4187C9.03677 12.2373 8.79989 11.9887 8.34778 11.9887ZM17.2882 3.55799C18.5454 3.55799 19.0897 4.5722 19.2456 4.91302C19.4951 5.45867 20.0433 6.64178 20.3079 8.62171C20.401 9.33149 20.5223 10.9992 19.7549 11.5184C19.5115 11.683 18.3141 11.8341 18.2054 11.7722C17.9049 11.6007 17.5991 10.2175 17.1535 9.49129V9.48652C17.0526 9.3133 16.989 9.21283 16.8218 9.11323C16.6499 9.01103 16.3814 9.03051 15.915 9.03051H12.8671C12.464 9.02835 12.2232 9.01882 12.0643 9.11279C11.8975 9.2124 11.8334 9.31373 11.7325 9.48652V9.49085C11.5203 9.8373 11.3402 10.331 11.1769 10.7736C10.5351 10.0231 9.64391 9.59392 8.64962 9.59392C8.60198 9.59392 8.55694 9.59825 8.51104 9.60042C8.51341 9.2731 8.53597 8.94625 8.5786 8.62171C8.84276 6.64178 9.39101 5.45867 9.64088 4.91302C9.79722 4.5722 10.3411 3.55755 11.5983 3.55755C12.1006 3.55755 12.5467 3.83774 12.9927 4.12789C12.9927 4.12789 13.7389 4.07592 14.4404 4.07592C15.1403 4.07592 15.8942 4.12789 15.8942 4.12789C16.3403 3.83774 16.7859 3.55799 17.2882 3.55799ZM17.9278 4.10624H17.0535C16.9969 4.10599 16.9408 4.11728 16.8887 4.13943C16.8366 4.16157 16.7896 4.1941 16.7505 4.23504C16.7114 4.27597 16.681 4.32444 16.6613 4.3775C16.6415 4.43056 16.6328 4.48708 16.6356 4.54362L16.6824 5.57083C16.6928 5.80685 16.8933 5.99912 17.1297 5.99912H17.7754C18.0093 5.99912 18.2163 5.80944 18.2375 5.57689L18.331 4.54752C18.3367 4.49126 18.3305 4.43444 18.3128 4.38073C18.2951 4.32702 18.2664 4.27762 18.2284 4.23572C18.1902 4.19418 18.1437 4.16115 18.0919 4.13877C18.0402 4.11638 17.9842 4.10515 17.9278 4.1058V4.10624ZM11.8326 4.10624H10.9587C10.9023 4.10561 10.8464 4.11685 10.7946 4.13924C10.7428 4.16162 10.6963 4.19464 10.6581 4.23615C10.6202 4.278 10.5915 4.32733 10.5738 4.38096C10.5561 4.43459 10.5499 4.49133 10.5555 4.54752L10.649 5.57689C10.6707 5.80944 10.8773 5.99912 11.1111 5.99912H11.7568C11.9928 5.99912 12.1933 5.80685 12.2041 5.5704L12.2509 4.54406C12.2539 4.48741 12.2453 4.43075 12.2256 4.37756C12.2059 4.32437 12.1755 4.27577 12.1363 4.23476C12.0972 4.19374 12.05 4.16118 11.9978 4.13908C11.9455 4.11698 11.8893 4.1058 11.8326 4.10624ZM10.6404 1.51223L11.1847 2.28957C10.0545 2.42814 9.09263 3.13229 8.53226 4.23962L7.97751 3.44712C8.60848 2.43637 9.54907 1.76427 10.6404 1.51223ZM18.2305 1.5079C19.3257 1.75604 20.2698 2.42425 20.9016 3.43153L20.3469 4.22359C19.7861 3.12017 18.8199 2.42078 17.6845 2.28783L18.2305 1.5079ZM9.58588 0.00519671L10.1043 0.746588C9.04153 1.06921 8.12086 1.73959 7.44442 2.68625L6.92259 1.94096C7.6315 1.03847 8.54395 0.376759 9.58588 0.00519671ZM19.2863 0C20.3304 0.367664 21.245 1.02634 21.9553 1.92623L21.4339 2.67152C20.7566 1.72746 19.8329 1.06012 18.7675 0.740526L19.2863 0Z" fill="white"/>
</svg>
