<svg width="20" height="19" viewBox="0 0 20 19" fill="none" xmlns="http://www.w3.org/2000/svg">
<path fill-rule="evenodd" clip-rule="evenodd" d="M9.00158 15.8849C9.00158 16.1189 8.9086 16.3434 8.74311 16.5089C8.57761 16.6744 8.35315 16.7673 8.1191 16.7673C7.88506 16.7673 7.6606 16.6744 7.4951 16.5089C7.32961 16.3434 7.23663 16.1189 7.23663 15.8849H9.00158ZM9.14877 13.9434C9.39163 13.9434 9.59001 14.1422 9.59001 14.3847C9.59001 14.6272 9.39163 14.8259 9.14877 14.8259H7.08979C6.84693 14.8259 6.64855 14.6272 6.64855 14.3847C6.64855 14.1422 6.84693 13.9434 7.08979 13.9434H9.14877ZM5.49887 5.49816C6.94612 4.0509 9.29244 4.0509 10.7397 5.49816C11.29 6.04842 11.6531 6.75795 11.7776 7.52615C11.9021 8.29435 11.7817 9.08225 11.4333 9.77815L9.86287 12.6984C9.83267 12.7545 9.78785 12.8014 9.73316 12.8341C9.67847 12.8668 9.61595 12.8841 9.55224 12.8841H6.68632C6.62261 12.8841 6.56009 12.8668 6.5054 12.8341C6.45071 12.8014 6.40589 12.7545 6.37569 12.6984L4.80489 9.77815C4.45645 9.08221 4.33594 8.29424 4.46044 7.52596C4.58494 6.75769 4.94813 6.0481 5.49851 5.49781L5.49887 5.49816ZM1.41196 7.41313C1.59919 7.41313 1.77876 7.48751 1.91116 7.6199C2.04356 7.7523 2.11793 7.93187 2.11793 8.1191C2.11793 8.30634 2.04356 8.48591 1.91116 8.61831C1.77876 8.7507 1.59919 8.82508 1.41196 8.82508H0.705978C0.518741 8.82508 0.339173 8.7507 0.206776 8.61831C0.0743796 8.48591 0 8.30634 0 8.1191C0 7.93187 0.0743796 7.7523 0.206776 7.6199C0.339173 7.48751 0.518741 7.41313 0.705978 7.41313H1.41196ZM13.8598 2.37809C13.9921 2.51048 14.0665 2.69002 14.0665 2.87722C14.0665 3.06442 13.9921 3.24395 13.8598 3.37634L13.3606 3.87547C13.2952 3.94119 13.2174 3.9933 13.1318 4.0288C13.0461 4.0643 12.9542 4.08249 12.8615 4.08232C12.7219 4.08229 12.5854 4.04087 12.4694 3.96329C12.3533 3.88572 12.2628 3.77547 12.2094 3.64649C12.156 3.51751 12.142 3.37558 12.1692 3.23865C12.1965 3.10173 12.2637 2.97595 12.3624 2.87722L12.8615 2.37809C12.9939 2.24574 13.1734 2.17139 13.3606 2.17139C13.5478 2.17139 13.7274 2.24574 13.8598 2.37809ZM3.37669 2.37809L3.87582 2.87722C3.94325 2.94234 3.99703 3.02024 4.03403 3.10637C4.07103 3.1925 4.09051 3.28514 4.09132 3.37888C4.09214 3.47262 4.07427 3.56558 4.03878 3.65235C4.00328 3.73911 3.95086 3.81793 3.88457 3.88422C3.81829 3.95051 3.73946 4.00293 3.6527 4.03842C3.56594 4.07392 3.47298 4.09178 3.37924 4.09097C3.2855 4.09015 3.19286 4.07068 3.10673 4.03368C3.02059 3.99668 2.94269 3.9429 2.87757 3.87547L2.37844 3.37634C2.31101 3.31122 2.25723 3.23332 2.22023 3.14718C2.18323 3.06105 2.16376 2.96841 2.16294 2.87467C2.16213 2.78094 2.17999 2.68797 2.21549 2.60121C2.25098 2.51445 2.3034 2.43562 2.36969 2.36934C2.43598 2.30305 2.5148 2.25063 2.60156 2.21513C2.68832 2.17964 2.78129 2.16177 2.87503 2.16259C2.96877 2.1634 3.06141 2.18288 3.14754 2.21988C3.23367 2.25688 3.31157 2.31066 3.37669 2.37809ZM8.1191 0C8.30634 0 8.48591 0.0743796 8.61831 0.206776C8.7507 0.339173 8.82508 0.518741 8.82508 0.705978V1.41196C8.82508 1.59919 8.7507 1.77876 8.61831 1.91116C8.48591 2.04356 8.30634 2.11794 8.1191 2.11794C7.93187 2.11794 7.7523 2.04356 7.6199 1.91116C7.48751 1.77876 7.41313 1.59919 7.41313 1.41196V0.705978C7.41313 0.518741 7.48751 0.339173 7.6199 0.206776C7.7523 0.0743796 7.93187 0 8.1191 0Z" fill="white"/>
<path fill-rule="evenodd" clip-rule="evenodd" d="M16.0915 10.1756C16.08 10.1759 16.0684 10.1768 16.0569 10.1785L13.9824 10.458C13.9056 10.4685 13.836 10.5085 13.7883 10.5696L13.22 11.3034C13.1967 11.3333 13.1796 11.3675 13.1698 11.404C13.1599 11.4406 13.1576 11.4788 13.1628 11.5163L13.3947 13.188L11.6869 13.4185C11.6101 13.4287 11.5404 13.4687 11.4928 13.5297C11.4815 13.5442 11.4766 13.5622 11.4681 13.5792C11.4766 13.5622 11.4815 13.5439 11.4928 13.5297L10.9245 14.2639C10.9013 14.2938 10.8843 14.3281 10.8745 14.3646C10.8647 14.4012 10.8624 14.4393 10.8676 14.4768L11.1493 16.5083C11.1545 16.5459 11.1672 16.5822 11.1866 16.6149C11.206 16.6477 11.2317 16.6762 11.2623 16.6989C11.3247 16.7451 11.4028 16.7648 11.4797 16.7539L13.8455 16.4348L14.1667 18.7515C14.172 18.7892 14.1847 18.8254 14.2042 18.858C14.2236 18.8907 14.2494 18.9192 14.28 18.9418C14.3299 18.9787 14.3902 18.9991 14.4523 19H14.4625C14.4743 18.9999 14.4861 18.9989 14.4978 18.9972L16.5716 18.7173C16.6485 18.7071 16.7184 18.6672 16.7661 18.6061L17.3344 17.8719C17.3571 17.8424 17.3739 17.8089 17.3838 17.773C17.3943 17.736 17.3968 17.6971 17.3912 17.659L17.1597 15.9872L18.8671 15.7571C18.9439 15.7469 19.0137 15.7068 19.0612 15.6455L19.6295 14.9113C19.6528 14.8815 19.6699 14.8473 19.6798 14.8107C19.6897 14.7742 19.6921 14.736 19.6871 14.6985L19.4047 12.6667C19.3995 12.6291 19.3868 12.5929 19.3674 12.5603C19.348 12.5277 19.3223 12.4993 19.2917 12.4768C19.2294 12.4304 19.1513 12.4104 19.0743 12.421L16.7086 12.7404L16.3873 10.4238C16.3822 10.3861 16.3695 10.3499 16.3501 10.3172C16.3307 10.2845 16.305 10.2561 16.2744 10.2335C16.2247 10.1969 16.1649 10.1766 16.1032 10.1756H16.0912H16.0915Z" fill="#F09104"/>
<path fill-rule="evenodd" clip-rule="evenodd" d="M16.3534 15.8273L16.5969 16.0031L16.0562 16.6801L16.7685 17.1941L16.5839 17.4253L15.8712 16.9114L15.3304 17.5884L15.0869 17.413L15.628 16.7356L14.9153 16.2216L15.1003 15.9904L15.8126 16.5047L16.3534 15.8273ZM13.5662 13.6857L13.791 15.2467L12.1486 15.4602L11.9234 13.8993L13.5662 13.6857ZM13.305 14.013L12.2679 14.1478L12.4098 15.133L13.4465 14.9982L13.3046 14.013H13.305ZM17.9489 13.0373C18.4473 12.9723 18.9066 13.3038 18.9747 13.7775C19.0428 14.2505 18.6944 14.6872 18.1956 14.7521C17.6976 14.8171 17.238 14.4856 17.1698 14.0123C17.1017 13.5385 17.4505 13.1022 17.9489 13.0373ZM18.6718 13.8167C18.6266 13.5025 18.3206 13.2819 17.9902 13.325C17.6598 13.368 17.4275 13.6586 17.4727 13.9727C17.5182 14.2869 17.8239 14.5075 18.1543 14.4641C18.4847 14.4214 18.717 14.1309 18.6718 13.8167ZM14.9796 10.8816L16.2454 12.398L14.2344 12.6596L14.9796 10.8816ZM15.0682 11.4552L14.7123 12.3045L15.6728 12.1795L15.0682 11.4552Z" fill="white"/>
</svg>
