<svg width="1000" height="182" viewBox="0 0 1000 182" fill="none" xmlns="http://www.w3.org/2000/svg">
<path d="M82.2856 -0.000227852V158.529L118.181 169.901V36.9766C118.181 30.713 120.973 26.5542 125.453 27.9844C131.309 29.6087 132.447 35.3787 132.447 41.5726V94.6607C154.79 105.475 172.381 94.655 172.381 66.122C172.381 36.9653 162.068 23.9764 131.722 13.5333C119.752 9.54783 97.5697 2.82255 82.2856 -0.000227852Z" fill="white"/>
<path d="M125.008 146.726L182.658 126.207C189.18 123.789 190.177 120.505 184.898 118.779C179.537 117.02 169.969 117.524 163.377 119.89L125.008 133.426V111.829L127.205 111.104C127.205 111.104 138.311 107.169 153.933 105.475C169.524 103.766 188.645 105.697 203.672 111.362C220.601 116.74 222.499 124.584 218.216 130.043C213.871 135.446 203.335 139.354 203.335 139.354L125.008 167.491" fill="white"/>
<path d="M16.5177 144.542C-0.8392 139.707 -3.73358 129.49 4.18451 123.588C11.4883 118.199 23.927 114.142 23.927 114.142L75.3455 95.8086V116.674L38.3781 129.925C31.83 132.267 30.8482 135.563 36.1226 137.287C41.4911 139.081 51.0184 138.599 57.5704 136.181L75.3455 129.772V148.399C74.1999 148.591 72.926 148.786 71.7634 148.983C54.041 151.925 35.1596 150.717 16.5177 144.542Z" fill="white"/>
<path d="M209.058 159.091C209.058 159.618 208.932 159.963 208.662 160.137C208.352 160.348 207.945 160.453 207.432 160.453H204.854V157.823H207.583C207.969 157.823 208.257 157.888 208.489 157.979C208.866 158.164 209.058 158.535 209.058 159.091ZM210.922 165.123C210.792 165.085 210.701 164.957 210.626 164.74C210.592 164.572 210.568 164.335 210.56 164.03L210.519 162.837C210.5 162.285 210.394 161.855 210.162 161.599C210.047 161.397 209.842 161.269 209.646 161.13C209.902 160.896 210.138 160.657 210.338 160.395C210.568 160.023 210.701 159.52 210.701 158.983C210.701 157.888 210.23 157.11 209.313 156.679C208.855 156.485 208.257 156.358 207.547 156.358H203.194V165.722H204.854V161.91H207.385C207.856 161.91 208.173 161.97 208.404 162.047C208.717 162.247 208.887 162.549 208.907 163.067L208.988 164.527C209.013 164.9 209.037 165.123 209.058 165.292L209.183 165.614L209.216 165.722H211.039V165.189M199.783 161.252C199.783 159.339 200.499 157.585 201.807 156.285C203.147 154.956 204.935 154.24 206.793 154.24C208.653 154.24 210.396 154.956 211.704 156.285C213.023 157.585 213.735 159.339 213.735 161.252C213.735 165.085 210.618 168.196 206.793 168.196C204.935 168.196 203.147 167.487 201.807 166.176C200.499 164.853 199.783 163.118 199.783 161.252ZM206.793 169.632C209.037 169.632 211.122 168.746 212.71 167.178C214.28 165.582 215.165 163.498 215.165 161.252C215.165 158.985 214.28 156.865 212.71 155.299C211.122 153.698 209.037 152.84 206.793 152.84C202.135 152.84 198.368 156.6 198.368 161.252C198.368 163.498 199.237 165.582 200.807 167.178C202.397 168.746 204.549 169.632 206.793 169.632Z" fill="white"/>
<path d="M337.063 41.6029L293.715 41.584C293.536 41.584 293.393 41.7254 293.393 41.8893V143.272C293.393 143.434 293.536 143.586 293.715 143.586H311.283L311.592 143.272L311.612 52.894L311.716 52.7432L331.832 52.7055C339.156 52.7055 343.179 60.0866 343.179 73.4618C343.179 86.8445 339.156 94.2425 331.832 94.2425L319.725 94.2293C319.544 94.2293 319.421 94.3669 319.421 94.5403V105.059C319.421 105.264 319.544 105.389 319.725 105.389H337.063C343.179 105.389 349.17 102.554 353.492 97.6834C358.614 91.9022 361.311 83.5563 361.311 73.5541C361.311 54.1716 351.844 41.6029 337.063 41.6029Z" fill="white"/>
<path d="M390.043 41.584H372.464C372.264 41.584 372.121 41.7254 372.121 41.8893V143.272C372.121 143.436 372.264 143.586 372.464 143.586H390.043L390.365 143.272V41.8893L390.043 41.584Z" fill="white"/>
<path d="M466.711 66.2616C466.711 66.0826 466.552 65.9469 466.379 65.9469H435.074C407.003 65.9469 403.415 86.5524 403.415 104.661L403.436 120.322C403.436 133.799 411.817 143.584 423.34 143.584H440.42L440.729 143.272V132.764C440.729 132.593 440.584 132.44 440.42 132.44L428.221 132.461C425.409 132.403 421.626 131.214 421.626 121.551V104.642C421.612 93.4058 422.658 86.2226 424.991 82.1354C427.518 77.6243 431.496 77.0194 435.074 77.0194H448.417L448.53 77.1777L448.513 143.272C448.513 143.432 448.649 143.584 448.836 143.584H466.383C466.556 143.584 466.711 143.432 466.711 143.272" fill="white"/>
<path d="M593.165 84.0104L584.508 83.3508C578.016 82.7912 573.189 79.1958 573.189 68.5586C573.189 56.1388 578.759 52.7413 586.194 52.7413H610.154L610.473 52.4322V41.8892L610.154 41.5859H609.653L583.696 41.5915C567.343 41.5915 555.715 51.1961 555.715 70.3375V71.1703C555.715 86.2735 565.009 97.1745 578.859 98.2335L587.474 98.8723C594.047 99.3698 598.139 105.247 598.139 114.166V116.674C598.139 122.25 596.745 132.452 584.787 132.452H559.892C559.725 132.452 559.58 132.597 559.58 132.776V143.27L559.892 143.584H590.8C600.323 143.584 616.271 139.731 616.271 113.81C616.271 104.418 614.138 97.0162 609.813 91.6665C606.127 87.0725 600.666 84.587 593.165 84.0104Z" fill="white"/>
<path d="M737.132 66.2616C737.132 66.0826 736.983 65.9469 736.817 65.9469H705.442C677.431 65.9469 673.806 86.5524 673.806 104.661L673.828 120.322C673.828 133.799 682.202 143.584 693.786 143.584H710.818L711.135 143.272V132.764C711.135 132.593 710.986 132.44 710.818 132.44L698.611 132.461C695.811 132.403 692.061 131.214 692.05 121.551V104.642C692.05 93.4058 693.107 86.2226 695.385 82.1354C697.914 77.6243 701.918 77.0194 705.437 77.0194H718.84L718.972 77.1777L718.94 143.272C718.94 143.432 719.085 143.584 719.26 143.584H736.832C737.005 143.584 737.132 143.432 737.132 143.272" fill="white"/>
<path d="M666.507 65.9488H647.438L647.338 65.832V53.056C647.338 52.8864 647.208 52.7432 647.03 52.7432H629.468C629.289 52.7432 629.133 52.8864 629.133 53.056V120.332C629.133 133.807 637.533 143.586 649.1 143.586H661.678C661.859 143.586 661.998 143.434 661.998 143.272V132.776C661.998 132.604 661.859 132.442 661.678 132.442H653.956C651.977 132.412 647.338 132.312 647.319 122.384V77.093L647.426 76.9912C653.268 77.0213 666.507 76.9912 666.507 76.9912L666.816 76.7029V66.2635C666.816 66.0864 666.671 65.9488 666.507 65.9488Z" fill="white"/>
<path d="M789.155 65.9488H770.193L770.064 65.832V53.056L769.774 52.7432H752.176C752.003 52.7432 751.852 52.8864 751.852 53.056V120.332C751.852 133.807 760.237 143.586 771.796 143.586H784.37C784.559 143.586 784.681 143.434 784.681 143.272V132.776C784.681 132.604 784.559 132.442 784.37 132.442H776.65C774.666 132.412 770.064 132.312 770.064 122.384V77.093L770.17 76.9912C775.966 77.0213 789.155 76.9912 789.155 76.9912L789.468 76.7029V66.2635C789.468 66.0864 789.309 65.9488 789.155 65.9488Z" fill="white"/>
<path d="M818.195 65.9488H800.634C800.47 65.9488 800.314 66.0864 800.314 66.2635V143.272L800.634 143.586H818.195C818.387 143.586 818.519 143.434 818.519 143.272V66.2635C818.519 66.0864 818.387 65.9488 818.195 65.9488Z" fill="white"/>
<path d="M818.195 41.5841H800.634L800.314 41.8894V56.6119C800.314 56.7909 800.47 56.9229 800.634 56.9229H818.195C818.387 56.9229 818.519 56.7909 818.519 56.6119V41.8894C818.519 41.7255 818.387 41.5841 818.195 41.5841Z" fill="white"/>
<path d="M939.7 65.9488H908.358C908.194 65.9488 908.048 66.0864 908.048 66.2635L908.039 143.272L908.333 143.586H925.925L926.223 143.272L926.199 77.1589L926.321 77.0308L939.685 77.0213C943.299 77.0213 947.264 77.6036 949.8 81.7831C952.12 85.5594 953.171 92.198 953.171 102.617C953.186 103.067 953.158 143.272 953.158 143.272C953.158 143.434 953.298 143.586 953.471 143.586H970.988C971.178 143.586 971.318 143.434 971.318 143.272V104.652C971.318 86.5524 967.702 65.9488 939.7 65.9488Z" fill="white"/>
<path d="M874.443 127.343C871.679 131.896 867.29 132.505 863.308 132.505C859.366 132.505 854.964 131.896 852.17 127.343C849.65 123.247 848.484 116.069 848.484 104.752V104.661C848.484 91.3049 850.127 83.7166 853.804 80.1024C856.003 77.909 858.854 77.0196 863.308 77.0196C867.827 77.0196 870.65 77.909 872.847 80.1024C876.491 83.7166 878.138 91.337 878.138 104.752C878.138 116.084 876.968 123.267 874.443 127.343ZM863.308 65.9489C833.973 65.9489 830.223 86.6505 830.223 104.752C830.223 122.874 833.973 143.643 863.308 143.643C892.646 143.643 896.386 122.874 896.386 104.752C896.386 86.6505 892.646 65.9489 863.308 65.9489Z" fill="white"/>
<path d="M476.622 65.9488L476.419 66.254L502.476 142.557C502.519 142.729 502.519 142.993 502.465 143.16L487.793 180.94C487.731 181.119 487.812 181.251 487.985 181.251H503.264C503.452 181.251 503.65 181.119 503.712 180.94L549.453 66.254C549.517 66.0712 549.436 65.9488 549.257 65.9488H532.588C532.407 65.9488 532.217 66.0863 532.16 66.254L512.795 116.395H512.578L495.481 66.254C495.442 66.0712 495.246 65.9488 495.07 65.9488" fill="white"/>
<path d="M993.906 133.064C993.906 133.573 993.765 133.905 993.495 134.102C993.196 134.317 992.785 134.408 992.282 134.408H989.706V131.787H992.427C992.815 131.787 993.109 131.847 993.328 131.949C993.699 132.131 993.906 132.497 993.906 133.064ZM995.756 139.092C995.636 139.045 995.54 138.917 995.462 138.704C995.438 138.546 995.414 138.286 995.408 137.994L995.366 136.816C995.342 136.239 995.24 135.808 994.997 135.572C994.882 135.365 994.682 135.224 994.494 135.079C994.737 134.852 994.98 134.621 995.178 134.353C995.414 133.982 995.54 133.499 995.54 132.962C995.54 131.847 995.071 131.074 994.159 130.647C993.684 130.454 993.109 130.326 992.389 130.326H988.048V139.686H989.706V135.868H992.229C992.694 135.868 993.028 135.934 993.239 136.009C993.552 136.209 993.723 136.516 993.751 137.029L993.834 138.497C993.855 138.859 993.876 139.092 993.906 139.239L994.017 139.573L994.053 139.686H995.877V139.143M984.626 135.216C984.626 133.298 985.342 131.557 986.661 130.238C987.999 128.924 989.781 128.204 991.626 128.204C993.491 128.204 995.231 128.924 996.54 130.238C997.865 131.557 998.585 133.298 998.585 135.216C998.585 139.049 995.457 142.162 991.626 142.162C989.781 142.162 987.999 141.451 986.661 140.14C985.342 138.827 984.626 137.078 984.626 135.216ZM991.626 143.586C993.878 143.586 995.971 142.701 997.564 141.144C999.118 139.556 1000 137.453 1000 135.216C1000 132.949 999.118 130.826 997.564 129.26C995.971 127.667 993.878 126.804 991.626 126.804C986.992 126.804 983.222 130.558 983.222 135.216C983.222 137.453 984.083 139.556 985.658 141.144C987.247 142.701 989.391 143.586 991.626 143.586Z" fill="white"/>
</svg>
