<svg width="44" height="45" viewBox="0 0 44 45" fill="none" xmlns="http://www.w3.org/2000/svg">
<path fill-rule="evenodd" clip-rule="evenodd" d="M40.8027 22.5742C40.8027 33.0287 32.3832 41.502 21.9951 41.502C11.607 41.502 3.1875 33.0287 3.1875 22.5742C3.1875 12.1198 11.607 3.64648 21.9951 3.64648C32.3832 3.64648 40.8027 12.1198 40.8027 22.5742Z" fill="white"/>
<path d="M21.9951 43.002C33.2206 43.002 42.3027 33.8481 42.3027 22.5742C42.3027 11.3004 33.2206 2.14648 21.9951 2.14648C10.7696 2.14648 1.6875 11.3004 1.6875 22.5742C1.6875 33.8481 10.7696 43.002 21.9951 43.002Z" stroke="white" stroke-opacity="0.3" stroke-width="3" stroke-linecap="round" stroke-linejoin="round"/>
<path fill-rule="evenodd" clip-rule="evenodd" d="M19.7823 16.387L27.8947 21.2157C28.9207 21.8256 28.9207 23.3209 27.8947 23.9308L19.7823 28.7595C18.7375 29.382 17.4167 28.6228 17.4167 27.4009V17.7456C17.4167 16.5237 18.7375 15.7645 19.7823 16.387Z" fill="#060608"/>
</svg>
