<svg width="22" height="16" viewBox="0 0 22 16" fill="none" xmlns="http://www.w3.org/2000/svg">
<path d="M21.4078 0H0.000131389V5.80334C0.000131389 5.80334 -0.0650212 8.04416 2.70634 8.04416H15.7918C16.3051 8.03996 16.8136 8.14341 17.2845 8.34783C18.0151 8.6736 18.8366 9.33677 18.8366 10.6747C18.8366 11.8754 18.2548 12.5572 17.6789 12.9388C17.2021 13.2469 16.6456 13.4086 16.078 13.4042H0.000131389V15.0331H17.9279C17.9279 15.0331 22 14.8679 22 10.6829C22 8.55492 20.7574 7.50083 19.6393 6.98425C18.9169 6.65239 18.1307 6.48206 17.3357 6.48513H4.3666C4.15048 6.48798 3.93701 6.43721 3.74531 6.33737C3.46841 6.18728 3.16358 5.88944 3.16358 5.30305V1.60674H21.4078V0Z" fill="white"/>
</svg>
